<?xml version="1.0" standalone="no"?>
<!DOCTYPE svg PUBLIC "-//W3C//DTD SVG 20010904//EN"
 "http://www.w3.org/TR/2001/REC-SVG-20010904/DTD/svg10.dtd">
<svg version="1.0" xmlns="http://www.w3.org/2000/svg"
 width="300.000000pt" height="348.000000pt" viewBox="0 0 300.000000 348.000000"
 preserveAspectRatio="xMidYMid meet">
<metadata>
Created by potrace 1.10, written by Peter Selinger 2001-2011
</metadata>
<g transform="translate(0.000000,348.000000) scale(0.050000,-0.050000)"
fill="#000000" stroke="none">
<path d="M2670 6941 c-593 -76 -1075 -509 -1255 -1128 -102 -346 -20 -1025
150 -1247 11 -15 6 -41 -14 -72 -82 -124 140 -458 348 -524 21 -6 67 -70 104
-143 36 -72 117 -186 179 -254 102 -112 195 -328 155 -362 -4 -3 -70 -26 -147
-51 -646 -210 -960 -570 -789 -905 l39 -75 -85 -34 c-880 -352 -1211 -764
-1285 -1596 -7 -77 -25 -221 -41 -320 -27 -178 -14 -255 29 -173 12 22 36 143
53 267 111 831 152 951 415 1222 227 233 914 625 958 546 20 -35 76 -44 76
-12 0 11 -28 73 -62 138 -153 292 -83 446 313 693 146 91 513 238 537 215 6
-7 12 -50 12 -96 l0 -83 -148 -65 c-502 -220 -456 -539 78 -541 276 -1 345
-21 438 -121 88 -95 116 -98 234 -23 127 80 258 119 478 142 280 30 459 98
620 236 179 153 -7 365 -320 365 l-142 0 13 75 c28 170 13 164 290 105 353
-74 451 -129 534 -298 103 -211 72 -494 -71 -647 -85 -90 -25 -123 65 -36 l69
67 120 -45 c302 -113 862 -459 1020 -631 215 -233 263 -404 279 -995 17 -592
51 -619 58 -45 8 616 -46 820 -286 1086 -194 214 -982 684 -1147 684 -27 0
-27 4 -1 74 63 163 2 508 -113 645 -87 103 -370 205 -650 234 -121 13 -122 13
-110 71 28 143 79 281 121 331 25 30 87 123 137 205 53 86 157 213 245 297
218 210 300 407 219 530 -27 41 -25 51 22 121 205 301 237 551 137 1062 -107
539 -416 883 -815 907 -111 6 -158 20 -248 75 -194 116 -517 168 -816 129z
m387 -62 c196 -24 298 -61 428 -152 85 -60 109 -67 230 -67 466 0 825 -574
825 -1317 0 -199 -162 -587 -257 -615 -123 -37 -229 -162 -175 -207 24 -19 35
-13 61 37 40 76 103 114 140 83 88 -73 19 -278 -141 -424 -169 -153 -206 -198
-308 -368 -448 -741 -1431 -719 -1806 40 -165 333 -227 803 -122 914 92 96
314 265 290 220 -39 -73 -28 -89 53 -73 129 24 429 127 570 196 l135 66 0 -62
c0 -102 45 -97 348 38 134 59 133 60 151 -43 12 -68 24 -77 76 -60 16 5 397
-386 450 -463 21 -30 44 -43 65 -35 48 19 16 65 -231 325 -120 127 -219 239
-219 249 0 11 -17 19 -37 19 -25 0 -48 27 -69 81 l-32 81 -99 -50 c-105 -54
-301 -132 -330 -132 -10 0 -11 23 -4 52 25 102 -15 106 -191 21 -153 -74 -540
-218 -553 -205 -3 3 9 40 26 82 46 110 -8 171 -77 87 -24 -29 -109 -106 -189
-171 -227 -185 -273 -259 -257 -417 l13 -128 -56 29 c-30 15 -70 32 -88 38
-46 13 -143 228 -200 442 -48 178 -36 671 20 850 172 552 651 967 1195 1037
194 25 182 25 365 2z m-1284 -2447 c41 -35 62 -78 79 -165 12 -64 29 -144 38
-176 l16 -59 -49 39 c-185 146 -257 238 -257 331 0 94 83 108 173 30z m1825
-1134 c-55 -223 -122 -762 -97 -787 38 -38 64 28 77 193 l12 166 94 6 c173 11
376 -83 376 -174 0 -123 -320 -260 -700 -302 -157 -17 -219 -35 -357 -102
l-167 -82 -73 71 c-104 101 -163 117 -433 122 -503 8 -534 213 -63 421 l117
51 -7 -135 c-6 -111 -1 -136 23 -136 56 0 48 418 -14 735 l-11 55 91 -51 c302
-168 937 -116 1127 94 50 56 51 39 5 -145z"/>
<path d="M2386 4727 c-60 -92 -30 -306 47 -335 118 -46 233 242 139 346 -55
60 -143 55 -186 -11z"/>
<path d="M3297 4747 c-90 -109 12 -406 120 -348 115 61 137 297 35 366 -39 26
-126 16 -155 -18z"/>
<path d="M2852 4497 c-40 -57 -41 -117 -3 -168 40 -54 85 -13 52 48 -16 32
-16 52 3 82 39 63 -9 99 -52 38z"/>
<path d="M4200 4470 c-36 -38 -42 -56 -24 -74 23 -23 124 62 124 105 0 36 -53
19 -100 -31z"/>
<path d="M2595 4125 c-214 -22 86 -295 325 -295 180 0 454 184 382 256 -41 41
-468 64 -707 39z m623 -76 c16 -16 -48 -73 -125 -113 -145 -73 -322 -46 -450
71 l-47 43 77 11 c80 11 531 1 545 -12z"/>
<path d="M1652 4384 c-9 -16 92 -124 116 -124 28 0 8 62 -32 99 -47 44 -68 50
-84 25z"/>
<path d="M3573 2207 c-22 -23 -14 -81 14 -105 72 -59 49 -742 -29 -870 -74
-122 -32 -202 57 -107 80 85 116 980 43 1067 -24 30 -63 36 -85 15z"/>
<path d="M2264 2149 c-89 -63 -49 -624 65 -895 18 -42 27 -85 20 -96 -32 -51
80 -198 150 -198 35 0 23 112 -17 163 -142 181 -252 874 -152 957 78 64 18
127 -66 69z"/>
</g>
</svg>
